<mxfile modified="2020-10-26T17:51:46.586Z" host="app.diagrams.net" agent="5.0 (Macintosh; Intel Mac OS X 10_15_7) AppleWebKit/537.36 (KHTML, like Gecko) Chrome/86.0.4240.111 Safari/537.36" etag="PaJL5ubDbJy9IqR3yMRH" version="13.8.3" type="github">
  <diagram id="Ht1M8jgEwFfnCIfOTk4-" name="Page-1">
    <mxGraphModel dx="3133" dy="2674" grid="1" gridSize="10" guides="1" tooltips="1" connect="1" arrows="1" fold="1" page="1" pageScale="1" pageWidth="1169" pageHeight="827" math="0" shadow="0">
      <root>
        <mxCell id="0" />
        <mxCell id="1" parent="0" />
        <mxCell id="okMh3Cy__QlaUFStjwWM-11" value="MicroService" style="fillColor=none;strokeColor=#5A6C86;dashed=1;verticalAlign=top;fontStyle=0;fontColor=#5A6C86;fontSize=20;" parent="1" vertex="1">
          <mxGeometry x="190" y="-80" width="840" height="400" as="geometry" />
        </mxCell>
        <mxCell id="okMh3Cy__QlaUFStjwWM-47" value="" style="edgeStyle=orthogonalEdgeStyle;rounded=0;orthogonalLoop=1;jettySize=auto;html=1;fontSize=20;" parent="1" source="okMh3Cy__QlaUFStjwWM-20" target="okMh3Cy__QlaUFStjwWM-28" edge="1">
          <mxGeometry relative="1" as="geometry" />
        </mxCell>
        <mxCell id="okMh3Cy__QlaUFStjwWM-62" value="" style="edgeStyle=orthogonalEdgeStyle;rounded=0;orthogonalLoop=1;jettySize=auto;html=1;fontSize=20;" parent="1" source="okMh3Cy__QlaUFStjwWM-20" target="okMh3Cy__QlaUFStjwWM-60" edge="1">
          <mxGeometry relative="1" as="geometry" />
        </mxCell>
        <mxCell id="okMh3Cy__QlaUFStjwWM-20" value="«interface»&lt;br&gt;&lt;b&gt;RestController&lt;/b&gt;" style="html=1;fontSize=20;" parent="1" vertex="1">
          <mxGeometry x="270" y="80" width="170" height="50" as="geometry" />
        </mxCell>
        <mxCell id="okMh3Cy__QlaUFStjwWM-48" value="" style="edgeStyle=orthogonalEdgeStyle;rounded=0;orthogonalLoop=1;jettySize=auto;html=1;fontSize=20;" parent="1" source="okMh3Cy__QlaUFStjwWM-21" target="okMh3Cy__QlaUFStjwWM-20" edge="1">
          <mxGeometry relative="1" as="geometry" />
        </mxCell>
        <mxCell id="okMh3Cy__QlaUFStjwWM-21" value="«interface»&lt;br&gt;&lt;b&gt;ValidationService&lt;/b&gt;" style="html=1;fontSize=20;" parent="1" vertex="1">
          <mxGeometry x="570" width="170" height="50" as="geometry" />
        </mxCell>
        <mxCell id="okMh3Cy__QlaUFStjwWM-27" value="«interface»&lt;br&gt;&lt;b&gt;Repository&lt;/b&gt;" style="html=1;fontSize=20;" parent="1" vertex="1">
          <mxGeometry x="840" y="60" width="150" height="60" as="geometry" />
        </mxCell>
        <mxCell id="okMh3Cy__QlaUFStjwWM-50" value="" style="edgeStyle=orthogonalEdgeStyle;rounded=0;orthogonalLoop=1;jettySize=auto;html=1;fontSize=20;" parent="1" source="okMh3Cy__QlaUFStjwWM-28" target="okMh3Cy__QlaUFStjwWM-21" edge="1">
          <mxGeometry relative="1" as="geometry">
            <Array as="points">
              <mxPoint x="655" y="90" />
              <mxPoint x="655" y="90" />
            </Array>
          </mxGeometry>
        </mxCell>
        <mxCell id="okMh3Cy__QlaUFStjwWM-51" value="" style="edgeStyle=orthogonalEdgeStyle;rounded=0;orthogonalLoop=1;jettySize=auto;html=1;fontSize=20;" parent="1" source="okMh3Cy__QlaUFStjwWM-28" target="okMh3Cy__QlaUFStjwWM-27" edge="1">
          <mxGeometry relative="1" as="geometry" />
        </mxCell>
        <mxCell id="okMh3Cy__QlaUFStjwWM-28" value="«interface»&lt;br&gt;&lt;b&gt;LogicService&lt;/b&gt;" style="html=1;fontSize=20;" parent="1" vertex="1">
          <mxGeometry x="570" y="110" width="170" height="50" as="geometry" />
        </mxCell>
        <mxCell id="okMh3Cy__QlaUFStjwWM-43" value="" style="endArrow=none;dashed=1;html=1;fontSize=20;" parent="1" edge="1">
          <mxGeometry width="50" height="50" relative="1" as="geometry">
            <mxPoint x="189.99999999999977" y="-40" as="sourcePoint" />
            <mxPoint x="1030" y="-40" as="targetPoint" />
          </mxGeometry>
        </mxCell>
        <mxCell id="okMh3Cy__QlaUFStjwWM-63" value="" style="edgeStyle=orthogonalEdgeStyle;rounded=0;orthogonalLoop=1;jettySize=auto;html=1;fontSize=20;" parent="1" source="okMh3Cy__QlaUFStjwWM-60" target="okMh3Cy__QlaUFStjwWM-28" edge="1">
          <mxGeometry relative="1" as="geometry" />
        </mxCell>
        <mxCell id="okMh3Cy__QlaUFStjwWM-60" value="«interface»&lt;br&gt;&lt;b&gt;PresentationService&lt;/b&gt;" style="html=1;fontSize=20;" parent="1" vertex="1">
          <mxGeometry x="370" y="190" width="210" height="50" as="geometry" />
        </mxCell>
        <mxCell id="okMh3Cy__QlaUFStjwWM-64" value="«interface»&lt;br&gt;&lt;b&gt;APIClient&lt;/b&gt;" style="html=1;fontSize=20;" parent="1" vertex="1">
          <mxGeometry x="750" y="190" width="210" height="50" as="geometry" />
        </mxCell>
        <mxCell id="okMh3Cy__QlaUFStjwWM-67" value="" style="endArrow=classic;html=1;fontSize=20;exitX=0.577;exitY=1.023;exitDx=0;exitDy=0;exitPerimeter=0;entryX=0;entryY=0.5;entryDx=0;entryDy=0;" parent="1" source="okMh3Cy__QlaUFStjwWM-28" target="okMh3Cy__QlaUFStjwWM-64" edge="1">
          <mxGeometry width="50" height="50" relative="1" as="geometry">
            <mxPoint x="640" y="250" as="sourcePoint" />
            <mxPoint x="670" y="230" as="targetPoint" />
          </mxGeometry>
        </mxCell>
        <mxCell id="okMh3Cy__QlaUFStjwWM-79" value="" style="endArrow=none;dashed=1;html=1;dashPattern=1 3;strokeWidth=2;fontSize=20;exitX=1;exitY=0.5;exitDx=0;exitDy=0;" parent="1" source="okMh3Cy__QlaUFStjwWM-27" edge="1">
          <mxGeometry width="50" height="50" relative="1" as="geometry">
            <mxPoint x="990" y="140" as="sourcePoint" />
            <mxPoint x="1030" y="90" as="targetPoint" />
          </mxGeometry>
        </mxCell>
        <mxCell id="okMh3Cy__QlaUFStjwWM-81" value="" style="endArrow=none;dashed=1;html=1;dashPattern=1 3;strokeWidth=2;fontSize=20;" parent="1" source="okMh3Cy__QlaUFStjwWM-11" edge="1">
          <mxGeometry width="50" height="50" relative="1" as="geometry">
            <mxPoint x="970" y="250" as="sourcePoint" />
            <mxPoint x="1030" y="210" as="targetPoint" />
          </mxGeometry>
        </mxCell>
      </root>
    </mxGraphModel>
  </diagram>
</mxfile>
